# xmcd
#
# Track frame offsets: 
#        150
#        13031
#        30983
#        45797
#        60304
#        70519
#        80725
#        92834
#        105208
#        120404
#
# Disc length: 1730 seconds
#
# Revision: 0
# Processed by: cddbd v1.5.2PL0 Copyright (c) Steve Scherf et al.
# Submitted via: ExactAudioCopy v0.95b3
#
DISCID=6306c00a
DTITLE=The Babys  - The Babys - 1976 (Promo LP)  
DYEAR=1900
DGENRE=
TTITLE0=Bitch or Angel
TTITLE1=I Wear Your Ring
TTITLE2=I'm Falling
TTITLE3=Time on my Hands
TTITLE4=You'll Get Yours
TTITLE5=Do It Nice
TTITLE6=Step in Line
TTITLE7=Rainy Day
TTITLE8=Jack the Lad
TTITLE9=If You Could See Me Fly
EXTD=
EXTT0=
EXTT1=
EXTT2=
EXTT3=
EXTT4=
EXTT5=
EXTT6=
EXTT7=
EXTT8=
EXTT9=
PLAYORDER=
